<?xml version="1.0" standalone="no"?>
<!DOCTYPE svg PUBLIC "-//W3C//DTD SVG 20010904//EN"
 "http://www.w3.org/TR/2001/REC-SVG-20010904/DTD/svg10.dtd">
<svg version="1.0" xmlns="http://www.w3.org/2000/svg"
 width="1024.000000pt" height="1024.000000pt" viewBox="0 0 1024.000000 1024.000000"
 preserveAspectRatio="xMidYMid meet">
<metadata>
Created by potrace 1.14, written by Peter Selinger 2001-2017
</metadata>
<g transform="translate(0.000000,1024.000000) scale(0.100000,-0.100000)"
fill="#000000" stroke="none">
<path d="M26 10209 l-26 -31 0 -264 0 -264 148 0 c128 0 153 3 187 20 103 53
210 -12 210 -127 0 -118 -120 -185 -220 -123 -41 26 -65 71 -65 125 l0 35
-130 0 -130 0 0 -255 0 -255 625 0 625 0 0 585 0 585 -599 0 -599 0 -26 -31z"/>
<path d="M1320 9655 l0 -585 190 0 190 0 0 585 0 585 -190 0 -190 0 0 -585z"/>
<path d="M1770 9497 l0 -742 -109 -109 -108 -108 -102 -5 c-91 -5 -101 -4
-101 11 0 14 9 17 48 16 68 -2 86 -1 79 7 -4 3 10 14 31 24 20 9 50 30 67 45
16 16 34 28 40 26 5 -2 7 0 3 3 -4 4 13 31 37 59 l45 51 0 112 0 113 -190 0
-190 0 0 -930 0 -930 -35 0 -35 0 0 695 0 695 -522 1 c-288 0 -516 3 -508 6 8
3 18 11 22 17 5 8 13 7 28 -1 24 -16 50 -17 50 -3 0 6 10 10 23 11 21 1 21 1
-3 9 -15 5 31 9 120 10 498 6 760 6 760 -1 0 -5 7 -6 15 -3 13 5 15 39 15 215
l0 209 -625 0 -625 0 0 -1410 0 -1410 443 -2 c243 -1 460 -2 481 -2 37 1 47 9
159 125 66 68 181 187 256 264 75 77 187 192 249 256 l112 117 0 632 0 631
160 164 161 163 4 856 3 856 -129 0 -129 0 0 -743z m-1177 -1370 c52 -22 98
-68 123 -122 40 -85 28 -174 -34 -245 -64 -76 -152 -103 -243 -76 -106 31
-169 113 -169 219 0 98 50 179 135 218 48 22 142 25 188 6z m-12 -1009 c80
-27 141 -97 159 -184 33 -158 -111 -313 -268 -289 -148 22 -238 157 -202 303
32 136 178 216 311 170z"/>
<path d="M420 8057 c-116 -61 -118 -226 -5 -292 39 -23 54 -27 101 -23 176 15
219 247 60 319 -55 25 -104 24 -156 -4z"/>
<path d="M448 7060 c-70 -21 -128 -99 -128 -171 1 -88 73 -168 160 -177 65 -6
93 2 136 40 110 96 73 269 -64 308 -43 11 -66 12 -104 0z"/>
<path d="M2099 9458 c0 -431 -2 -820 -2 -865 l-2 -81 -75 -79 c-41 -43 -114
-118 -162 -168 l-88 -90 0 -630 -1 -630 -214 -220 c-118 -121 -292 -302 -387
-402 l-173 -182 -497 -1 -498 0 0 -3055 0 -3055 2375 0 2375 0 0 846 0 845 33
-3 32 -3 3 -842 2 -843 80 0 80 0 0 932 0 932 -187 188 c-103 103 -193 188
-199 188 -7 0 -24 14 -38 31 -40 47 -37 110 8 155 38 38 86 45 136 19 67 -35
82 -119 31 -177 l-29 -33 174 -180 174 -179 0 -938 0 -938 49 0 c42 0 50 3 54
23 11 46 8 3063 -3 3092 -6 16 -51 67 -99 114 -124 122 -231 246 -231 270 l0
21 -983 0 -983 0 -42 -43 c-23 -23 -42 -46 -42 -49 0 -4 17 -23 38 -42 l37
-36 596 0 595 0 92 -93 c89 -91 91 -94 72 -110 -11 -9 -20 -14 -20 -10 0 3
-11 -7 -25 -23 -14 -16 -25 -25 -25 -20 0 5 -7 3 -15 -4 -18 -15 -18 -10 -5
25 6 17 6 24 0 20 -5 -3 -14 -20 -18 -38 -6 -23 -14 -31 -26 -29 -12 2 -16 -1
-10 -9 4 -7 -3 -5 -17 4 -21 16 -93 17 -841 17 l-817 0 -35 34 -36 33 0 320 0
319 -152 153 -152 153 -448 -3 -447 -4 -210 209 -210 209 -33 -43 c-70 -92
-187 -116 -277 -57 -142 94 -86 321 84 335 29 2 69 -1 89 -8 42 -14 115 -92
123 -132 3 -17 12 -28 21 -28 9 0 112 -95 228 -211 l212 -211 449 4 448 4 339
-343 340 -344 58 58 59 58 993 1 994 2 38 26 c140 95 288 -85 159 -192 l-34
-28 119 -119 120 -120 0 -1577 0 -1578 80 0 80 0 2 223 c2 405 7 1140 7 1300
l1 157 293 0 293 -1 92 92 92 92 0 229 0 229 1072 -1 1073 -2 152 154 153 153
-1 80 -1 80 -44 39 -44 39 -25 -23 c-16 -15 -41 -24 -73 -28 -41 -3 -52 0 -79
22 -59 50 -66 127 -17 185 l24 29 -27 21 c-16 11 -32 25 -36 30 -33 35 -45 50
-48 59 -2 7 -35 44 -74 85 -38 40 -76 81 -83 92 -7 11 -10 14 -6 6 5 -10 3
-12 -5 -7 -7 5 -10 14 -7 21 3 8 -2 12 -12 10 -9 -1 -20 2 -23 8 -4 6 -16 3
-30 -7 -43 -29 -114 -12 -139 33 -7 13 -3 17 15 19 12 1 28 -5 35 -13 16 -19
40 -19 68 1 26 18 30 65 8 87 -11 11 -12 17 -3 26 8 8 8 11 -2 11 -7 0 -19 7
-27 15 -23 22 2 18 41 -7 35 -23 65 -70 65 -105 0 -10 7 -27 15 -37 8 -10 12
-23 9 -28 -3 -5 -2 -8 3 -7 22 4 35 -2 30 -15 -4 -10 -1 -13 8 -10 8 3 16 -3
20 -15 3 -12 10 -19 14 -16 5 2 16 -4 26 -15 10 -11 13 -20 7 -20 -6 0 -12 6
-14 12 -3 7 -7 3 -10 -8 -5 -18 -1 -21 23 -18 21 3 29 -2 34 -16 4 -11 11 -18
16 -14 6 3 8 -5 5 -20 -3 -15 -1 -24 5 -21 5 4 7 11 4 16 -10 15 11 10 25 -6
6 -8 9 -19 5 -25 -4 -6 -3 -10 2 -9 25 4 45 -6 96 -48 31 -27 75 -61 99 -78
25 -18 46 -43 53 -63 6 -19 36 -59 67 -90 31 -31 62 -70 67 -85 12 -30 13
-148 3 -184 -4 -12 -83 -99 -175 -192 -137 -139 -174 -170 -200 -173 l-31 -3
3 -110 3 -109 43 -41 c56 -52 73 -105 55 -169 -28 -99 -133 -156 -225 -121
-157 59 -146 282 15 325 37 10 40 13 40 48 0 20 3 70 6 110 l6 72 -991 0 -991
0 0 -292 0 -293 272 3 272 3 -65 59 -64 59 -80 1 c-87 2 -147 18 -150 41 -2
12 19 15 126 18 l129 2 92 -85 92 -86 215 0 215 0 328 -327 328 -328 0 -407 0
-408 -28 0 -29 0 -7 398 -6 397 -303 303 -302 302 -170 0 -169 0 59 -60 60
-61 3 -120 4 -121 34 -30 c29 -26 34 -36 34 -75 0 -55 -12 -78 -50 -98 -47
-24 -95 -19 -132 14 -29 26 -33 36 -33 79 0 54 20 87 63 103 21 8 22 14 22
112 l0 104 -77 77 -78 76 -425 0 -425 0 -146 -147 c-80 -82 -156 -161 -167
-177 -22 -29 -22 -29 -22 -657 l0 -629 1376 0 1376 0 -4 430 -3 430 -577 578
c-318 317 -578 582 -578 587 0 6 7 19 16 30 14 18 44 -10 609 -575 l595 -595
0 -442 0 -443 890 0 890 0 0 1260 0 1260 -375 0 -375 0 0 -457 0 -456 -273
-276 c-150 -152 -345 -350 -434 -441 -155 -158 -163 -164 -177 -145 -9 11 -15
22 -16 25 0 3 54 61 120 130 l119 125 1 1059 0 1060 -289 290 -290 290 -55 3
c-31 1 -56 -1 -56 -4 0 -3 128 -136 285 -295 157 -159 285 -295 285 -303 0 -7
-7 -18 -15 -25 -20 -17 -19 -18 -350 321 l-290 296 -397 2 -396 1 -101 103
-101 102 0 119 c0 134 -7 119 112 244 l61 63 24 -22 23 -23 -48 -50 c-113
-118 -112 -117 -112 -213 l0 -85 82 -84 82 -84 907 0 c519 0 910 4 913 9 3 5
6 149 6 320 1 297 2 311 20 311 10 0 20 6 23 13 8 21 20 -101 13 -140 -8 -58
-6 -497 3 -506 4 -4 104 -7 221 -5 179 3 214 5 218 18 10 32 72 78 112 85 81
14 180 -64 180 -142 0 -86 -67 -157 -149 -157 -63 0 -109 28 -138 84 l-23 45
-215 -3 -215 -3 0 -143 c0 -133 2 -145 22 -172 14 -18 16 -24 5 -15 -20 16
-22 3 -3 -22 8 -10 16 -13 18 -7 2 6 19 -6 38 -27 19 -21 23 -28 9 -15 -14 12
-29 19 -32 15 -4 -3 -7 -1 -7 6 0 7 -4 10 -9 7 -5 -3 -14 1 -21 9 -7 8 -16 12
-21 9 -5 -3 -18 5 -28 18 -26 31 -17 37 10 7 15 -17 19 -19 15 -6 -3 9 -1 17
5 17 6 0 7 5 3 11 -5 8 -8 8 -13 0 -5 -8 -13 -5 -25 8 -15 16 -17 37 -14 160
l3 141 -383 0 -384 0 558 -565 558 -565 388 0 388 0 0 499 c0 465 -2 500 -18
504 -14 4 -14 5 3 6 17 1 18 3 5 11 -10 6 -11 10 -2 10 9 0 12 408 12 2005 l0
2005 -825 0 -825 0 2 -302 3 -303 475 -3 c261 -1 485 0 496 3 16 3 23 15 28
44 11 72 84 131 160 131 48 0 105 -30 136 -72 34 -45 36 -152 4 -195 -72 -97
-204 -99 -275 -4 l-23 31 -503 0 -503 0 0 -167 0 -167 158 -158 157 -158 113
-3 c170 -6 156 29 160 -396 l3 -348 224 -221 225 -222 40 21 c106 56 226 -61
174 -167 -27 -53 -62 -76 -117 -76 -75 0 -126 48 -132 124 -3 38 -16 54 -244
282 l-241 241 -2 345 -3 345 -115 3 -115 3 -177 181 -178 181 0 657 0 658 -35
21 c-128 75 -79 301 66 301 l36 0 7 61 c8 79 8 297 -1 516 l-6 171 -36 7
c-172 32 -202 267 -44 337 122 54 253 -30 253 -162 0 -64 -21 -104 -73 -144
l-34 -26 1 -384 1 -383 33 -37 c38 -44 52 -75 52 -117 0 -60 -59 -140 -117
-160 l-33 -11 0 -104 0 -104 825 0 825 0 0 635 0 635 -202 -2 -203 -3 -3 -125
c-2 -69 0 -162 3 -207 6 -68 10 -83 25 -88 10 -3 28 -26 40 -50 18 -38 20 -50
11 -78 -16 -48 -61 -88 -108 -94 -34 -4 -45 -1 -76 26 -20 18 -41 46 -46 64
l-11 32 -203 -3 -202 -3 -83 84 -82 85 0 371 0 371 35 0 35 0 0 -360 0 -359
62 -70 63 -71 189 0 c188 0 188 0 207 24 11 14 35 31 54 37 l35 13 0 212 0
213 27 21 c25 20 36 21 230 18 l203 -3 0 193 0 193 -240 -3 -240 -3 -109 -115
-109 -115 -186 185 c-102 102 -186 190 -186 196 0 6 8 19 19 28 18 16 25 9
185 -156 l166 -173 43 45 c23 25 47 43 52 42 6 -2 7 -1 3 3 -12 12 73 102 110
116 13 5 129 9 258 9 l234 0 0 385 0 385 -140 0 -140 0 0 -71 0 -72 -108 -108
-107 -109 -893 0 -892 0 0 -222 c0 -1654 -3 -3172 -7 -3205 l-5 -43 -153 0
-153 0 -4 -317 -3 -318 -38 -40 c-63 -66 -534 -656 -544 -681 -3 -8 56 -92
133 -190 77 -96 150 -190 164 -207 187 -241 273 -347 279 -347 5 0 43 78 86
173 172 382 494 1108 530 1195 l39 92 66 0 65 0 24 -62 c68 -176 532 -1250
587 -1359 19 -36 34 -69 34 -73 0 -4 -54 -5 -121 -4 l-121 3 -89 203 c-49 112
-89 208 -89 213 0 6 -122 8 -296 7 l-297 -3 -88 -210 -88 -210 -238 -2 -238
-2 -78 97 c-295 366 -389 482 -397 487 -4 3 -103 -115 -218 -262 -116 -148
-226 -285 -246 -305 l-36 -37 0 -581 0 -581 -32 3 -33 3 -3 587 -2 587 -84 3
-84 3 300 375 c165 206 302 380 305 387 2 7 -100 145 -229 308 -292 372 -327
418 -328 429 0 13 263 -3 276 -17 6 -7 64 -82 129 -167 250 -326 276 -360 283
-359 4 0 61 71 127 156 66 86 159 206 208 267 l87 111 113 5 112 5 3 478 2
477 -1460 0 -1460 0 0 -245 0 -245 -1484 0 -1483 0 -88 -92 c-49 -51 -155
-162 -237 -247 -146 -152 -149 -154 -168 -136 -12 11 -19 24 -18 31 2 7 113
125 246 263 l244 251 1459 0 1459 0 0 443 0 442 -223 0 c-337 0 -407 -3 -407
-17 -1 -7 -11 -25 -23 -39 -69 -82 -193 -76 -259 12 -24 32 -26 115 -4 156 34
67 107 103 176 88 43 -9 107 -69 115 -106 l7 -29 309 0 309 0 0 185 0 185
-725 0 c-399 0 -725 -3 -725 -7 1 -5 66 -73 145 -153 l145 -144 0 -163 c0
-108 4 -163 11 -163 5 0 7 5 4 10 -10 16 1 12 15 -6 12 -13 8 -15 -26 -13 -21
1 -49 -3 -61 -9 -14 -8 -75 -12 -167 -12 l-146 0 -32 29 -33 29 0 131 0 131
-187 187 -188 188 0 350 0 350 -72 72 -73 73 -3 158 c-2 86 -1 193 3 237 l6
80 165 172 164 172 0 112 0 112 -175 175 c-96 96 -175 179 -175 184 0 10 43
56 239 261 l65 67 -327 0 -327 0 -1 -782z m6257 -684 c41 -20 64 -59 64 -109
0 -76 -51 -125 -131 -125 -33 0 -47 6 -74 33 -64 64 -51 157 25 199 43 22 72
23 116 2z m861 -584 c87 -52 82 -199 -7 -245 -41 -21 -107 -19 -145 5 -84 52
-84 190 -1 241 41 25 112 25 153 -1z m-35 -750 c66 -19 111 -99 93 -167 -3
-15 -23 -44 -44 -65 -35 -34 -44 -38 -89 -38 -43 0 -57 5 -87 31 -19 17 -40
48 -46 70 -21 68 28 155 96 172 32 8 38 7 77 -3z m-5536 -277 c-10 -11 -19 -7
-22 10 -2 15 0 16 12 6 8 -6 12 -14 10 -16z m-45 -47 c-18 -14 -39 -22 -47
-19 -8 3 -14 0 -14 -6 0 -6 5 -11 11 -11 5 0 7 -4 4 -10 -10 -17 -22 -11 -21
10 1 23 23 41 41 34 6 -3 18 2 25 11 7 8 17 15 23 15 6 0 -4 -11 -22 -24z
m-77 -78 c-3 -5 -12 -4 -20 3 -7 6 -11 15 -8 21 3 5 12 4 20 -3 7 -6 11 -15 8
-21z m-49 -9 c-4 -5 -12 -9 -18 -8 -9 0 -8 2 1 6 6 2 9 10 6 15 -4 7 -2 8 5 4
6 -4 9 -12 6 -17z m25 -3 c0 -2 -8 -10 -17 -17 -16 -13 -17 -12 -4 4 13 16 21
21 21 13z m371 -129 c53 -35 79 -82 79 -140 0 -113 -106 -197 -211 -166 -44
14 -105 73 -115 114 l-6 25 -309 0 -309 0 0 35 0 35 315 0 c260 0 315 2 315
14 0 20 39 66 74 87 45 27 124 25 167 -4z m5968 -655 c54 -27 93 -83 99 -141
6 -66 -2 -93 -40 -136 -41 -48 -77 -65 -135 -65 -92 0 -164 67 -179 166 -7 46
18 116 52 146 56 50 141 62 203 30z m-299 -113 c0 -19 -34 -28 -110 -32 l-85
-3 91 -2 c77 -2 93 1 107 16 10 10 14 22 10 25 -3 4 -2 7 4 7 20 0 21 -13 0
-36 -20 -23 -25 -24 -158 -24 -81 0 -140 4 -144 10 -3 6 -16 10 -27 10 -12 0
-19 3 -15 6 3 4 68 7 144 7 76 0 126 2 111 4 -48 7 -31 24 22 22 28 -2 50 -6
50 -10z m-8974 -194 c139 -41 214 -199 156 -328 -67 -147 -253 -192 -371 -90
-60 51 -84 104 -85 183 -2 117 65 205 181 236 62 16 61 16 119 -1z m1729 -135
c277 -70 498 -287 577 -567 28 -101 30 -276 4 -372 -74 -273 -297 -497 -563
-565 -119 -31 -222 -37 -339 -22 -124 17 -199 40 -290 91 -200 112 -343 294
-395 504 -30 121 -24 303 14 410 110 307 363 504 697 545 68 8 216 -4 295 -24z
m996 -28 c17 -7 75 -76 313 -370 122 -151 150 -181 162 -171 8 7 47 53 87 103
39 50 136 169 215 264 l144 172 135 0 135 0 -19 -24 c-10 -13 -74 -91 -143
-173 -266 -318 -425 -514 -425 -522 0 -10 250 -321 487 -607 70 -85 129 -158
133 -164 4 -7 -39 -10 -127 -10 l-133 1 -57 72 c-79 100 -464 573 -957 1177
-110 135 -201 248 -201 253 0 9 229 8 251 -1z m1492 2 l37 -7 0 -314 0 -314
428 3 c410 3 429 4 472 25 84 39 130 111 130 203 0 63 -18 106 -61 147 -45 42
-79 55 -169 62 l-75 6 -3 98 -3 97 89 0 c100 0 184 -19 247 -55 60 -36 132
-116 163 -183 24 -51 27 -68 27 -172 0 -108 -2 -119 -30 -174 -32 -63 -85
-115 -155 -151 l-44 -22 34 -18 c157 -81 233 -263 186 -443 -49 -181 -211
-292 -428 -292 l-88 0 0 99 0 98 73 6 c90 6 148 29 186 73 93 105 52 287 -80
355 -62 31 -160 38 -541 39 l-358 0 0 -335 0 -335 -105 0 -105 0 0 755 0 755
68 0 c37 0 84 -3 105 -6z m5053 -199 c1 -31 -3 -53 -8 -52 -6 1 -12 -6 -13
-16 -12 -71 -149 -57 -181 19 -8 20 -13 39 -10 42 3 3 6 -1 6 -8 0 -11 3 -11
11 -3 9 9 8 16 -5 28 -19 20 -20 26 -3 23 6 -2 13 4 13 12 1 8 2 21 3 28 0 6
6 12 12 12 8 0 8 -4 0 -14 -7 -8 -8 -17 -3 -20 5 -3 9 -23 9 -46 0 -68 41 -92
106 -60 22 11 27 20 27 52 0 22 4 37 9 33 5 -3 13 0 17 6 4 8 3 9 -4 5 -7 -4
-12 -2 -12 4 0 6 -4 8 -10 5 -5 -3 -21 2 -35 11 l-26 17 23 12 c20 10 26 9 48
-11 20 -19 25 -35 26 -79z m-2222 -614 c14 -15 15 -21 4 -27 -7 -4 -10 -4 -6
1 11 11 -12 36 -25 28 -6 -3 -7 -1 -3 5 9 15 10 15 30 -7z m-43 -44 c-6 -6
-11 -16 -11 -21 1 -6 10 0 20 13 11 13 20 19 20 14 0 -5 -20 -29 -45 -53 -36
-35 -45 -40 -45 -25 0 14 -3 16 -12 7 -8 -8 -8 -15 2 -29 13 -17 13 -17 -5 -1
-13 13 -15 20 -7 30 5 7 11 18 13 23 1 6 16 27 33 47 25 30 32 34 40 21 5 -9
4 -19 -3 -26z m-87 -120 c-3 -7 -32 -39 -65 -72 -34 -33 -55 -49 -47 -35 8 14
14 32 13 40 0 8 3 18 8 21 5 3 9 13 11 22 1 9 13 28 26 42 22 23 25 24 41 9
10 -9 15 -21 13 -27z m-3889 -34 c13 -16 25 -31 25 -36 0 -4 -81 -108 -181
-232 l-181 -225 -130 0 -130 0 44 54 c24 29 97 120 162 202 66 82 142 175 169
207 l49 57 74 0 c69 0 77 -2 99 -27z m3775 -57 c0 -3 -4 -8 -10 -11 -5 -3 -10
-1 -10 4 0 6 5 11 10 11 6 0 10 -2 10 -4z m2468 -190 c36 -19 78 -65 91 -99
50 -131 -77 -270 -213 -236 -42 10 -56 22 -126 98 -15 16 -16 49 -5 118 7 37
46 88 90 114 36 23 124 25 163 5z m-2722 -21 c12 -18 7 -27 -60 -95 -40 -41
-100 -105 -134 -142 l-62 -67 0 -521 0 -520 616 0 c654 0 638 1 640 -47 l1
-23 -637 0 -636 0 -27 28 -27 28 0 537 0 538 143 154 c78 84 148 153 156 152
7 -1 20 -11 27 -22z m1184 -160 c46 -24 70 -62 70 -112 0 -63 -23 -101 -76
-124 -54 -25 -106 -14 -148 30 -97 102 29 271 154 206z m1013 -52 c-7 -2 -19
-2 -25 0 -7 3 -2 5 12 5 14 0 19 -2 13 -5z m-2665 -615 l-3 -573 -32 -3 -33
-3 0 575 0 576 36 0 36 0 -4 -572z m-3363 402 c35 -22 65 -73 65 -111 0 -37
-37 -103 -69 -122 -59 -35 -147 -12 -186 47 -36 55 -12 161 43 190 39 22 108
20 147 -4z m615 -15 c64 -61 61 -145 -5 -204 -29 -25 -44 -31 -83 -31 -59 0
-108 29 -128 75 -29 70 -10 139 49 176 47 30 127 22 167 -16z m500 -40 c94
-49 71 -177 -36 -192 -36 -5 -44 -1 -72 27 -26 26 -32 39 -32 75 0 35 6 49 31
74 34 34 65 39 109 16z m-3773 -187 l31 -30 695 -2 c383 0 699 -5 704 -9 4 -5
9 -178 11 -385 l3 -377 46 -47 47 -48 868 0 c861 0 867 0 878 20 6 11 16 17
22 14 7 -4 8 -3 4 4 -4 7 6 20 26 32 18 10 40 28 48 40 17 23 32 27 24 5 -6
-14 5 -20 31 -16 6 1 -23 -30 -62 -68 l-73 -70 0 -591 0 -590 26 0 c17 0 40
-14 66 -40 39 -39 40 -42 36 -92 -5 -44 -11 -57 -42 -85 -27 -25 -45 -33 -73
-33 -50 0 -95 29 -116 73 -23 47 -21 66 8 121 l25 47 0 580 0 579 -856 -1
-856 -1 -74 73 -74 73 0 358 0 358 -23 5 c-13 4 -177 5 -365 3 l-341 -3 -178
-184 c-98 -101 -178 -188 -178 -192 0 -5 24 -35 53 -68 48 -55 52 -64 52 -110
0 -64 -7 -81 -34 -80 -15 1 -16 3 -4 6 20 5 31 30 12 30 -7 0 -11 -4 -8 -9 3
-4 1 -8 -4 -8 -5 0 -13 21 -17 48 -6 41 -15 56 -78 119 l-71 73 183 183 c165
166 180 185 159 190 -13 4 -129 7 -259 7 l-237 0 -35 -35 c-28 -28 -43 -35
-75 -35 -113 0 -142 151 -38 195 40 18 73 10 113 -27z m5057 -309 c22 -19 38
-43 42 -64 5 -27 68 -95 336 -362 182 -180 338 -335 347 -343 9 -8 64 -60 121
-116 l105 -100 658 1 657 2 0 -36 0 -36 -670 1 -670 0 -148 147 c-82 81 -153
147 -158 147 -6 0 -16 -6 -22 -12 -8 -8 -44 -12 -107 -11 l-94 1 -208 -212
c-114 -117 -273 -279 -352 -359 -79 -81 -144 -146 -145 -145 -30 52 -35 45
157 244 99 103 258 266 352 362 l171 175 84 4 c47 2 91 6 97 8 16 5 5 35 -12
35 -8 0 -117 102 -243 228 -127 125 -241 238 -255 251 l-26 23 -31 -22 c-93
-66 -216 26 -180 135 28 85 127 113 194 54z m2231 11 c4 -6 -1 -7 -12 -3 -15
5 -16 3 -5 -8 6 -7 12 -17 12 -23 0 -5 -6 -1 -14 9 -14 20 -12 35 4 35 5 0 12
-4 15 -10z m-37 -35 c-3 -3 -9 2 -12 12 -6 14 -5 15 5 6 7 -7 10 -15 7 -18z
m-2 -27 c5 -7 3 -8 -6 -3 -8 5 -11 3 -8 -6 3 -8 11 -13 17 -11 7 1 9 -3 6 -9
-5 -8 -12 -6 -22 4 -9 8 -12 20 -9 26 9 14 13 14 22 -1z m1314 -143 c13 -14
21 -25 18 -25 -2 0 -15 11 -28 25 -13 14 -21 25 -18 25 2 0 15 -11 28 -25z
m100 -79 c0 -6 -5 -3 -11 6 -5 10 -17 15 -27 12 -14 -5 -14 -4 -2 4 16 12 40
-2 40 -22z m915 -95 c-3 -6 -11 -11 -17 -11 -6 0 -6 6 2 15 14 17 26 13 15 -4z
m-770 -20 c-6 -5 -25 10 -25 20 0 5 6 4 14 -3 8 -7 12 -15 11 -17z m723 3
c-13 -13 -20 -14 -34 -5 -17 11 -17 11 4 6 13 -4 22 -2 22 4 0 6 5 11 12 11 8
0 7 -6 -4 -16z m-1901 -21 c0 -9 -4 -10 -14 -2 -7 6 -13 12 -13 14 0 1 6 2 13
2 8 0 14 -6 14 -14z m-7797 -3 c0 -5 -5 -10 -11 -10 -5 0 -7 5 -4 10 3 6 8 10
11 10 2 0 4 -4 4 -10z m24 -22 c-3 -4 -11 -8 -17 -7 -9 0 -9 2 0 5 7 3 9 13 6
22 -4 14 -3 14 5 2 6 -8 8 -18 6 -22z m33 0 c-3 -7 -5 -2 -5 12 0 14 2 19 5
13 2 -7 2 -19 0 -25z m1115 -4 c52 -36 88 -102 88 -161 0 -81 -58 -164 -134
-193 -24 -9 -26 -13 -25 -72 0 -35 3 -71 7 -80 6 -15 1179 -1198 1188 -1198 2
0 4 199 4 442 l0 442 165 166 c138 138 169 165 192 164 16 0 144 -2 286 -2
l257 -2 0 -520 0 -520 -30 0 -30 0 0 485 0 485 -250 0 -250 0 -135 -137 -134
-138 -1 -470 0 -471 133 -132 134 -132 706 0 707 0 2 323 3 322 28 3 27 3 0
-354 0 -354 -37 -7 c-21 -3 -358 -6 -748 -6 l-710 0 -788 788 -787 787 0 88
c0 73 -3 87 -16 87 -33 0 -111 52 -136 91 -47 73 -46 155 4 229 57 84 192 105
280 44z m3999 -59 c16 -9 27 -20 24 -25 -3 -4 1 -10 7 -13 10 -3 10 -7 1 -18
-9 -11 -8 -19 3 -34 13 -17 16 -18 24 -5 13 21 12 7 -2 -27 -6 -15 -11 -30
-10 -34 0 -3 -8 -11 -20 -18 -11 -7 -17 -8 -14 -3 3 6 -6 15 -21 20 -17 6 -21
11 -11 11 9 1 21 9 27 18 5 10 13 14 17 10 4 -4 -1 -14 -12 -22 -10 -8 -14
-15 -8 -15 5 0 18 6 29 13 17 13 17 15 -6 46 -19 26 -21 34 -10 40 10 6 5 11
-18 16 -17 4 -29 11 -25 16 3 5 -5 10 -18 10 -22 2 -22 2 2 7 l25 5 -25 8
c-17 5 -19 7 -7 8 10 1 31 -6 48 -14z m-103 -27 c-2 -7 -7 -16 -13 -20 -5 -4
-6 -10 -2 -14 4 -4 13 -2 19 4 7 7 17 12 23 12 5 0 2 -5 -8 -11 -9 -6 -15 -14
-12 -20 4 -5 2 -9 -3 -9 -18 0 0 -40 26 -60 13 -11 33 -20 43 -20 34 0 27 -15
-7 -16 -19 0 -29 3 -23 7 8 4 4 9 -10 14 -11 3 -21 11 -21 16 0 6 -5 7 -10 4
-6 -4 -7 -12 -4 -18 4 -7 3 -8 -2 -4 -5 5 -10 21 -10 35 -1 15 -2 35 -3 45 -1
10 -6 15 -12 11 -6 -3 -3 8 5 25 17 32 28 41 24 19z m-1013 -25 c45 -34 48
-102 5 -144 -26 -26 -36 -30 -77 -27 -38 2 -48 7 -47 20 1 9 -4 14 -10 12 -13
-5 -36 36 -36 64 0 26 38 82 63 92 29 12 72 5 102 -17z m1035 -123 c0 -5 -5
-10 -11 -10 -5 0 -7 5 -4 10 3 6 8 10 11 10 2 0 4 -4 4 -10z m-3336 -242 c-2
-4 4 -9 14 -12 32 -10 83 -72 92 -110 11 -50 -4 -100 -44 -143 -27 -30 -41
-36 -83 -40 -98 -10 -167 53 -166 148 1 75 59 149 118 149 8 0 15 3 15 8 0 4
13 7 29 7 16 0 27 -3 25 -7z m-1666 -189 c50 -25 99 -85 108 -135 l6 -34 196
0 196 0 263 -262 c250 -250 262 -263 238 -271 -14 -5 -23 -13 -19 -18 3 -5 10
-7 15 -4 5 4 9 4 9 1 0 -32 -57 17 -273 233 l-252 251 -194 1 -194 1 -32 -35
c-69 -75 -173 -94 -239 -44 -104 80 -110 209 -14 291 57 50 118 57 186 25z
m9298 -254 c98 -58 120 -185 46 -269 -25 -27 -91 -56 -133 -56 -56 0 -119 39
-146 90 -83 156 83 323 233 235z m-6593 -129 c51 -21 87 -70 87 -117 0 -81
-53 -139 -127 -139 -84 0 -133 51 -133 138 0 57 25 96 74 118 40 17 59 17 99
0z m-2833 -186 c0 -11 -4 -20 -9 -20 -6 0 -9 9 -8 20 1 11 5 20 9 20 4 0 8 -9
8 -20z m30 -32 c0 -19 -2 -20 -10 -8 -13 19 -13 30 0 30 6 0 10 -10 10 -22z
m25 -53 c151 -76 60 -309 -104 -265 -134 36 -141 232 -10 271 28 9 39 18 39
32 0 20 0 20 18 1 9 -10 35 -28 57 -39z m6061 -421 c44 -21 84 -88 84 -140 -1
-80 -80 -163 -155 -164 -40 0 -114 38 -139 72 -27 38 -32 123 -9 168 38 74
138 103 219 64z m-542 -498 c49 -20 76 -60 76 -113 0 -98 -97 -161 -180 -118
-74 38 -95 134 -43 195 42 50 87 61 147 36z m-2980 -250 c46 -19 104 -73 127
-117 26 -52 25 -139 -2 -195 -45 -94 -154 -147 -254 -125 -147 33 -226 208
-152 334 28 47 73 88 117 106 37 14 126 13 164 -3z"/>
<path d="M8251 8704 c-12 -15 -21 -32 -21 -39 0 -24 41 -65 66 -65 31 0 64 33
64 65 0 32 -33 65 -64 65 -15 0 -33 -11 -45 -26z"/>
<path d="M9098 8140 c-9 -6 -22 -26 -28 -44 -27 -84 62 -141 124 -80 36 36 36
85 0 113 -28 22 -68 27 -96 11z"/>
<path d="M9113 7380 c-47 -19 -58 -92 -20 -128 32 -30 63 -28 98 7 35 35 37
61 7 95 -27 29 -55 38 -85 26z"/>
<path d="M3753 6853 c-35 -7 -73 -59 -73 -100 0 -50 54 -103 105 -103 29 0 45
8 71 34 77 77 8 189 -103 169z"/>
<path d="M9715 6186 c-60 -26 -83 -102 -50 -166 21 -40 53 -60 98 -60 33 0 46
7 79 40 38 38 40 43 35 86 -5 51 -27 81 -74 100 -39 17 -50 17 -88 0z"/>
<path d="M423 5861 c-113 -52 -132 -211 -34 -294 41 -34 94 -50 139 -42 118
21 183 142 133 250 -22 48 -44 69 -94 90 -48 20 -93 19 -144 -4z"/>
<path d="M1920 5592 c-102 -29 -187 -79 -265 -157 -115 -114 -165 -236 -165
-396 0 -158 45 -265 159 -380 55 -55 95 -85 143 -108 255 -121 519 -84 713
100 125 119 185 271 172 438 -17 222 -169 413 -390 491 -88 32 -275 37 -367
12z"/>
<path d="M9774 5659 c-3 -6 -2 -15 4 -21 6 -6 12 -6 17 3 6 8 4 10 -5 4 -10
-6 -12 -4 -7 8 7 19 2 23 -9 6z"/>
<path d="M9806 5533 c-6 -14 -5 -15 5 -6 7 7 10 15 7 18 -3 3 -9 -2 -12 -12z"/>
<path d="M7550 4925 c-7 -9 -11 -18 -8 -20 3 -3 11 1 18 10 7 9 11 18 8 20 -3
3 -11 -1 -18 -10z"/>
<path d="M7511 4886 c-8 -10 -8 -16 3 -25 10 -8 16 -9 21 -1 3 5 1 10 -5 10
-7 0 -10 7 -6 15 7 19 2 19 -13 1z"/>
<path d="M7445 4818 c-3 -8 -5 -20 -3 -26 2 -5 -1 -10 -7 -10 -5 0 -9 4 -7 10
1 5 -2 7 -8 3 -8 -5 -7 -11 1 -21 8 -10 8 -14 1 -14 -6 0 -17 -10 -23 -22
l-11 -23 21 23 c12 12 25 22 29 22 4 0 15 11 24 24 15 21 16 26 3 36 -12 10
-16 9 -20 -2z m20 -8 c3 -5 1 -10 -4 -10 -6 0 -11 5 -11 10 0 6 2 10 4 10 3 0
8 -4 11 -10z"/>
<path d="M9694 4451 c-85 -52 -63 -182 36 -212 69 -21 150 40 150 114 0 92
-105 148 -186 98z"/>
<path d="M8214 4273 c-20 -14 -36 -54 -30 -77 3 -12 17 -28 31 -36 32 -17 70
-2 87 35 10 22 8 30 -9 53 -20 27 -58 39 -79 25z"/>
<path d="M3162 4007 c-12 -13 -22 -36 -22 -51 0 -32 40 -76 70 -76 31 0 70 44
70 78 0 35 -37 72 -71 72 -14 0 -35 -10 -47 -23z"/>
<path d="M3774 4020 c-31 -12 -45 -59 -29 -97 20 -48 65 -57 109 -22 66 52 -2
152 -80 119z"/>
<path d="M4338 3973 c-19 -5 -32 -40 -26 -70 4 -22 62 -31 84 -12 15 12 18 47
6 65 -9 14 -42 23 -64 17z"/>
<path d="M504 3795 c-31 -47 17 -107 66 -82 36 19 45 39 29 73 -20 41 -71 46
-95 9z"/>
<path d="M4010 3019 c0 -5 5 -7 10 -4 6 3 10 8 10 11 0 2 -4 4 -10 4 -5 0 -10
-5 -10 -11z"/>
<path d="M4030 3005 c-7 -8 -17 -12 -24 -8 -6 3 -8 3 -4 -2 4 -4 2 -15 -4 -24
-7 -9 2 -3 20 13 18 17 32 31 32 33 0 7 -8 2 -20 -12z"/>
<path d="M3890 1621 c-15 -29 -12 -56 8 -74 32 -29 69 -21 91 21 10 19 10 28
-4 48 -20 31 -79 34 -95 5z"/>
<path d="M5564 3455 c-26 -39 -6 -75 41 -75 28 0 38 5 47 25 28 63 -50 107
-88 50z"/>
<path d="M1440 3038 c-44 -30 -60 -61 -60 -116 0 -86 53 -137 142 -137 53 0
61 3 94 36 87 88 35 227 -88 237 -44 3 -59 0 -88 -20z"/>
<path d="M4416 2934 c-17 -16 -21 -51 -8 -70 13 -20 55 -24 74 -7 21 18 24 63
6 81 -17 17 -54 15 -72 -4z"/>
<path d="M2137 2533 c-22 -6 -47 -54 -47 -92 0 -20 9 -37 31 -55 35 -30 49
-32 89 -11 101 52 39 187 -73 158z"/>
<path d="M430 2366 c-73 -24 -101 -127 -49 -182 67 -73 167 -57 205 32 37 88
-60 182 -156 150z"/>
<path d="M9708 2115 c-49 -28 -70 -92 -48 -149 11 -31 65 -66 101 -66 38 0 91
40 107 81 12 31 11 41 -1 72 -26 62 -105 93 -159 62z"/>
<path d="M3166 1964 c-59 -59 10 -155 79 -110 34 22 36 87 3 110 -29 20 -62
20 -82 0z"/>
<path d="M375 1708 c-51 -29 -60 -84 -20 -123 45 -46 115 -24 131 41 8 32 -10
68 -43 83 -30 14 -43 13 -68 -1z"/>
<path d="M6414 1290 c-11 -4 -28 -20 -37 -34 -62 -93 64 -196 150 -122 22 19
28 32 28 66 0 72 -72 118 -141 90z"/>
<path d="M5922 779 c-35 -13 -48 -53 -28 -84 32 -49 106 -25 106 34 0 42 -37
65 -78 50z"/>
<path d="M2844 525 c-101 -60 -108 -206 -13 -275 60 -43 109 -47 172 -16 71
34 101 86 95 160 -5 66 -36 112 -92 137 -57 26 -112 24 -162 -6z"/>
<path d="M2700 10088 c-80 -83 -149 -157 -154 -165 -6 -11 33 -57 158 -182
l166 -167 0 -134 0 -133 -108 -111 c-59 -61 -135 -141 -170 -178 l-62 -66 0
-202 0 -202 64 -66 c35 -37 68 -77 75 -89 7 -15 11 -128 11 -362 l0 -340 186
-190 186 -191 -1 -100 c-1 -55 1 -116 5 -135 l6 -35 144 0 144 0 0 133 0 132
-175 175 c-124 123 -175 181 -175 197 l0 23 636 0 636 0 167 173 c92 94 211
217 264 272 l96 100 1 127 0 127 -28 15 c-27 14 -45 40 -57 83 -9 32 13 101
35 116 20 12 20 28 20 769 l0 758 -170 0 -170 0 0 -532 0 -532 -168 -170 c-92
-94 -205 -209 -250 -256 l-82 -85 0 -102 c0 -79 3 -103 13 -103 22 0 93 -67
107 -100 20 -48 8 -132 -25 -175 -66 -87 -204 -87 -270 0 -68 88 -30 230 70
266 l34 13 3 268 3 268 -417 0 -418 0 0 35 0 35 415 0 415 0 0 410 c0 384 1
410 18 411 9 0 25 2 35 4 16 3 17 -22 17 -411 l0 -414 151 0 152 0 63 68 63
67 1 458 0 457 -685 0 -685 0 0 35 0 35 685 0 685 0 0 25 0 25 -757 -1 -758 0
-145 -151z m557 -215 c96 -45 98 -199 4 -248 -110 -56 -223 33 -200 158 16 89
109 132 196 90z m-97 -1257 c0 -3 -4 -8 -10 -11 -5 -3 -10 -1 -10 4 0 6 5 11
10 11 6 0 10 -2 10 -4z m67 -2 c-3 -3 -12 -4 -19 -1 -8 3 -5 6 6 6 11 1 17 -2
13 -5z m-60 -25 c-10 -14 -12 -30 -7 -54 8 -35 45 -83 57 -72 3 4 1 7 -5 7 -7
0 -12 4 -12 10 0 5 6 7 14 4 8 -3 24 4 35 15 15 15 21 17 21 7 0 -8 5 -18 11
-22 8 -4 9 4 5 27 l-6 34 11 -29 c10 -25 9 -31 -7 -42 -11 -7 -24 -18 -31 -23
-7 -7 -28 -7 -55 -2 -24 5 -37 9 -30 10 9 1 7 11 -9 33 -13 17 -25 26 -27 20
-2 -7 -8 -10 -13 -6 -12 7 -11 66 2 84 9 13 10 12 5 -2 -7 -24 7 -23 29 2 24
26 30 26 12 -1z m-17 -105 c0 -8 -5 -12 -10 -9 -6 4 -8 11 -5 16 9 14 15 11
15 -7z m178 -307 c64 -64 53 -173 -22 -222 -92 -61 -216 10 -216 123 0 89 63
146 153 139 40 -4 56 -11 85 -40z"/>
<path d="M3141 9794 c-28 -35 -26 -65 3 -94 48 -45 116 -18 116 47 0 68 -78
99 -119 47z"/>
<path d="M3250 8480 c-9 -6 -10 -10 -3 -10 6 0 15 5 18 10 8 12 4 12 -15 0z"/>
<path d="M3178 8133 c-23 -28 -28 -63 -13 -93 26 -51 81 -55 120 -8 20 23 25
38 20 57 -10 42 -34 61 -75 61 -23 0 -43 -7 -52 -17z"/>
<path d="M4842 9494 l3 -746 35 -12 c20 -6 44 -25 58 -46 42 -63 15 -165 -50
-186 -16 -5 -18 -18 -18 -140 l0 -134 -57 -63 c-31 -34 -123 -129 -203 -212
-81 -82 -168 -172 -193 -200 l-47 -50 140 -3 140 -3 0 -219 0 -220 191 0 191
0 53 53 c29 28 71 74 94 100 l41 48 0 304 c0 260 2 304 15 309 8 3 15 17 15
31 0 31 30 93 57 117 27 24 87 48 123 48 l30 0 0 423 0 422 -31 17 c-68 39
-86 156 -37 235 55 90 197 96 261 11 75 -97 39 -225 -73 -265 l-50 -18 0 -425
0 -426 30 -22 c54 -41 81 -123 60 -187 -13 -40 -61 -99 -94 -117 -61 -33 -142
-26 -209 18 -34 22 -38 23 -37 7 1 -10 2 -131 1 -270 l-1 -252 -109 -113 -110
-113 -188 -2 c-103 -2 -196 -3 -205 -3 -17 0 -18 -16 -18 -195 l0 -195 1459 0
1460 0 0 415 0 415 -732 1 -732 2 -108 112 -107 111 0 1192 0 1192 -127 0
-128 0 -29 -40 -30 -40 -88 0 c-54 0 -88 4 -88 10 0 6 -10 24 -22 40 -20 28
-27 30 -85 30 l-63 0 -1 -442 c-1 -244 -1 -543 1 -666 l2 -223 -38 3 -39 3 -3
663 -2 662 -155 0 -155 0 2 -746z m1178 -2081 c40 -27 49 -45 50 -91 1 -116
-152 -143 -197 -35 -37 90 69 180 147 126z m547 -20 c32 -40 37 -76 17 -118
-36 -77 -126 -85 -181 -17 -18 22 -16 103 3 130 35 51 123 54 161 5z m529 -7
c28 -28 34 -42 34 -76 0 -34 -6 -48 -34 -76 -46 -46 -91 -47 -141 -3 -31 28
-35 36 -35 81 0 41 5 54 29 79 43 43 101 41 147 -5z m-1530 -245 c67 -41 68
-141 1 -181 -46 -28 -80 -25 -122 11 -31 27 -35 37 -35 78 0 51 20 84 60 100
38 15 62 13 96 -8z"/>
<path d="M5948 7369 c-32 -18 -41 -48 -23 -75 20 -31 59 -32 79 -2 21 29 20
51 -2 71 -21 19 -30 20 -54 6z"/>
<path d="M6462 7364 c-29 -20 -27 -70 3 -90 48 -32 102 48 60 90 -21 20 -35
20 -63 0z"/>
<path d="M6988 7357 c-9 -7 -20 -25 -23 -39 -14 -55 67 -92 99 -46 21 30 20
54 -4 78 -23 23 -47 25 -72 7z"/>
<path d="M5472 7088 c-7 -7 -12 -24 -12 -38 0 -14 5 -31 12 -38 7 -7 24 -12
38 -12 14 0 31 5 38 12 7 7 12 24 12 38 0 14 -5 31 -12 38 -7 7 -24 12 -38 12
-14 0 -31 -5 -38 -12z"/>
<path d="M5960 9059 l0 -1181 88 -89 88 -89 325 0 326 0 244 256 c134 141 310
327 391 413 l148 156 0 858 0 857 -204 0 -204 0 0 -551 c0 -509 -2 -552 -18
-570 -9 -10 -26 -19 -37 -19 -20 0 -20 4 -14 570 l6 570 -95 0 -96 0 4 -317 3
-318 -32 -3 -33 -3 0 320 0 321 -137 0 c-112 0 -134 -2 -120 -12 26 -20 49
-86 42 -119 -4 -16 -20 -43 -37 -59 -59 -60 -168 -27 -184 56 -8 45 0 73 31
107 l26 27 -256 0 -255 0 0 -1181z m195 749 c32 -38 36 -48 31 -83 -9 -76 -91
-108 -161 -65 -59 36 -57 124 4 166 53 36 83 32 126 -18z m351 -561 c4 -4 -13
-7 -37 -6 -33 0 -39 2 -24 9 22 9 51 8 61 -3z m10 -31 c19 -20 18 -25 -6 -19
-11 3 -20 9 -20 13 0 5 -10 11 -22 13 -19 4 -18 4 5 6 16 0 35 -5 43 -13z m31
-58 c-3 -8 -6 -5 -6 6 -1 11 2 17 5 13 3 -3 4 -12 1 -19z m36 3 c3 -13 -1 -21
-13 -24 -14 -4 -15 -1 -6 19 13 29 12 29 19 5z m-12 -44 c-6 -8 -8 -17 -4 -21
4 -4 0 -4 -10 0 -9 3 -17 10 -17 16 0 5 4 7 9 3 5 -3 12 -1 16 5 3 5 9 10 12
10 3 0 0 -6 -6 -13z m192 -581 c75 -32 105 -109 71 -181 -23 -49 -67 -75 -127
-75 -40 0 -53 5 -83 33 -115 105 -4 284 139 223z"/>
<path d="M6052 9794 c-16 -11 -22 -25 -22 -55 0 -33 4 -41 26 -51 64 -30 114
57 58 101 -32 25 -33 25 -62 5z"/>
<path d="M6661 8453 c-24 -30 -20 -58 11 -85 37 -33 80 -21 97 25 26 69 -63
118 -108 60z"/>
<path d="M7640 9368 l0 -871 -118 -121 c-65 -67 -163 -168 -218 -226 -55 -58
-171 -179 -257 -269 -86 -90 -157 -167 -157 -172 0 -5 161 -9 375 -9 206 0
374 -3 374 -7 -1 -5 -1 -279 0 -610 l1 -603 120 0 120 0 0 1713 c0 941 3 1722
6 1735 l6 22 917 0 917 0 82 84 82 85 0 60 0 61 -543 0 -543 0 -44 -45 -44
-45 -251 0 -251 0 -44 45 -44 45 -243 0 -243 0 0 -872z"/>
<path d="M8235 10230 c4 -6 92 -10 230 -10 138 0 226 4 230 10 4 7 -75 10
-230 10 -155 0 -234 -3 -230 -10z"/>
<path d="M6487 10172 c-40 -44 3 -119 52 -92 40 21 52 67 25 94 -21 21 -57 20
-77 -2z"/>
<path d="M359 9605 c-35 -19 -42 -40 -28 -82 12 -37 57 -67 86 -56 62 22 82
85 38 128 -27 28 -57 31 -96 10z"/>
<path d="M5455 9344 c-60 -64 -15 -174 71 -174 68 0 113 56 100 124 -9 48 -47
76 -103 76 -35 0 -49 -6 -68 -26z"/>
<path d="M8533 9276 c-49 -22 -68 -61 -64 -133 1 -30 53 -79 91 -87 36 -7 86
12 113 42 24 26 32 90 15 121 -29 54 -101 80 -155 57z"/>
<path d="M3928 8880 c-2 -72 -2 -130 -1 -130 1 0 52 55 115 123 l113 122 -65
6 c-36 4 -86 7 -112 8 l-47 1 -3 -130z"/>
<path d="M4795 8650 c-41 -45 18 -110 70 -76 27 18 34 63 13 84 -18 18 -63 14
-83 -8z"/>
<path d="M9746 8488 c-22 -31 -20 -64 4 -88 27 -27 56 -25 85 5 28 27 30 42
13 80 -15 34 -79 36 -102 3z"/>
<path d="M3843 8385 c-40 -17 -53 -42 -53 -98 0 -77 62 -121 135 -97 40 13 75
60 75 100 0 35 -35 89 -66 100 -33 13 -52 12 -91 -5z"/>
<path d="M5411 8202 c-58 -10 -101 -65 -101 -130 0 -53 66 -112 125 -112 63 0
125 59 125 119 0 77 -72 137 -149 123z"/>
<path d="M8517 8169 c-21 -12 -47 -61 -47 -89 0 -88 111 -133 171 -69 61 66
20 169 -68 169 -21 0 -46 -5 -56 -11z"/>
<path d="M3740 7302 c-33 -34 -38 -67 -15 -111 43 -84 170 -47 170 50 0 50
-28 79 -83 86 -36 5 -45 2 -72 -25z"/>
<path d="M9710 7123 c-103 -53 -66 -203 51 -203 36 0 84 43 95 84 21 86 -68
159 -146 119z"/>
<path d="M8319 5313 c-58 -132 -152 -351 -160 -370 l-9 -23 195 0 195 0 -19
48 c-18 45 -80 193 -139 330 -14 34 -30 62 -35 62 -4 0 -17 -21 -28 -47z"/>
<path d="M9700 5083 c-43 -15 -52 -68 -17 -101 30 -28 52 -28 82 3 30 29 32
54 5 83 -20 22 -40 26 -70 15z"/>
<path d="M434 4666 c-104 -46 -95 -188 14 -226 37 -13 47 -13 84 0 48 17 88
67 88 109 0 40 -33 92 -71 113 -40 21 -72 22 -115 4z"/>
<path d="M9685 3805 c-54 -53 -16 -145 58 -145 68 0 111 63 82 120 -29 56 -98
68 -140 25z"/>
<path d="M2377 3443 c3 -148 6 -274 8 -280 7 -20 46 -15 74 10 14 12 19 14 12
5 -8 -12 -9 -18 -3 -18 6 0 16 9 22 20 6 11 16 20 23 19 9 0 9 -2 0 -6 -7 -2
-13 -9 -13 -14 0 -16 28 2 33 21 6 25 -3 33 -22 18 -9 -7 -5 0 8 14 20 23 41
29 41 12 0 -3 -4 -3 -9 1 -5 3 -12 1 -15 -4 -4 -5 -2 -12 3 -15 13 -8 8 -33
-12 -56 -17 -20 -10 -20 801 -20 l817 0 -66 65 -67 65 -599 0 -599 0 -39 41
c-39 39 -84 72 -71 51 9 -15 -22 -8 -37 8 -9 11 -8 11 7 0 18 -14 18 -13 11
10 -6 23 -291 320 -306 320 -3 0 -4 -120 -2 -267z m313 -105 c0 -5 -6 -7 -12
-5 -7 1 -12 -4 -10 -12 3 -12 0 -12 -12 -1 -17 14 -20 21 -8 19 21 -4 23 3 6
23 l-19 22 27 -20 c15 -10 28 -22 28 -26z m-90 -21 c0 -2 -12 -14 -27 -28
l-28 -24 24 28 c23 25 31 32 31 24z m30 -1 c0 -2 -8 -10 -17 -17 -16 -13 -17
-12 -4 4 13 16 21 21 21 13z m5 -36 c-3 -5 -11 -10 -16 -10 -6 0 -7 5 -4 10 3
6 11 10 16 10 6 0 7 -4 4 -10z m-35 -4 c0 -2 -7 -7 -16 -10 -8 -3 -12 -2 -9 4
6 10 25 14 25 6z m-6 -35 c-10 -10 -21 -17 -23 -15 -6 6 20 34 32 34 6 0 2 -8
-9 -19z"/>
<path d="M4905 3556 c-25 -25 -25 -44 -2 -73 21 -28 97 -1 97 33 0 17 -44 64
-60 64 -6 0 -22 -11 -35 -24z"/>
<path d="M8000 3492 c6 -13 14 -21 18 -18 3 4 -2 14 -12 24 -18 16 -18 16 -6
-6z"/>
<path d="M7870 3399 c0 -15 18 -19 23 -6 3 8 -1 14 -9 14 -8 0 -14 -4 -14 -8z"/>
<path d="M8131 3294 c13 -17 26 -30 28 -27 3 2 -8 16 -24 31 l-28 27 24 -31z"/>
<path d="M8898 2181 c-2 -487 -1 -929 2 -982 l5 -97 263 268 262 269 0 448 0
448 -265 266 -264 266 -3 -886z"/>
<path d="M8376 2968 c-21 -29 -20 -51 2 -71 24 -22 55 -21 75 1 22 25 21 48
-3 72 -26 26 -55 25 -74 -2z"/>
<path d="M4612 2384 c-41 -28 -16 -94 36 -94 21 0 52 34 52 57 0 17 -36 53
-53 53 -7 0 -23 -7 -35 -16z"/>
<path d="M8128 1931 c-28 -25 -33 -36 -33 -74 0 -49 19 -78 68 -104 37 -19 78
-9 117 27 25 23 30 36 30 75 0 38 -5 52 -29 76 -42 41 -107 41 -153 0z"/>
<path d="M6112 1727 c-23 -23 -42 -45 -42 -47 0 -3 20 -4 45 -2 l45 4 0 44 c0
24 -1 44 -3 44 -2 0 -22 -19 -45 -43z"/>
<path d="M5447 856 c-4 -414 -4 -777 0 -805 l6 -51 68 0 69 0 0 645 0 646 151
159 151 160 -219 0 -220 0 -6 -754z"/>
<path d="M6976 1174 c-22 -21 -20 -57 4 -79 17 -15 24 -16 49 -5 38 15 48 44
27 75 -19 29 -57 33 -80 9z"/>
</g>
</svg>
